<?xml version="1.0" encoding="UTF-8" standalone="no"?>
<!-- Created with Inkscape (http://www.inkscape.org/) -->

<svg
   xmlns:dc="http://purl.org/dc/elements/1.1/"
   xmlns:cc="http://creativecommons.org/ns#"
   xmlns:rdf="http://www.w3.org/1999/02/22-rdf-syntax-ns#"
   xmlns:svg="http://www.w3.org/2000/svg"
   xmlns="http://www.w3.org/2000/svg"
   xmlns:sodipodi="http://sodipodi.sourceforge.net/DTD/sodipodi-0.dtd"
   xmlns:inkscape="http://www.inkscape.org/namespaces/inkscape"
   width="64"
   height="64"
   viewBox="0 0 16.933333 16.933334"
   version="1.1"
   id="svg8"
   inkscape:version="0.92.3 (2405546, 2018-03-11)"
   sodipodi:docname="up.svg"
   inkscape:export-filename="up.png"
   inkscape:export-xdpi="96"
   inkscape:export-ydpi="96">
  <defs
     id="defs2" />
  <sodipodi:namedview
     id="base"
     pagecolor="#ffffff"
     bordercolor="#666666"
     borderopacity="1.0"
     inkscape:pageopacity="0.0"
     inkscape:pageshadow="2"
     inkscape:zoom="5.6"
     inkscape:cx="7.5448877"
     inkscape:cy="28.260756"
     inkscape:document-units="px"
     inkscape:current-layer="layer1"
     showgrid="false"
     units="px"
     inkscape:measure-start="-0.126269,31.9461"
     inkscape:measure-end="5.55584,31.6935"
     inkscape:window-width="1920"
     inkscape:window-height="1017"
     inkscape:window-x="-8"
     inkscape:window-y="-8"
     inkscape:window-maximized="1" />
  <metadata
     id="metadata5">
    <rdf:RDF>
      <cc:Work
         rdf:about="">
        <dc:format>image/svg+xml</dc:format>
        <dc:type
           rdf:resource="http://purl.org/dc/dcmitype/StillImage" />
        <dc:title></dc:title>
      </cc:Work>
    </rdf:RDF>
  </metadata>
  <g
     inkscape:label="Layer 1"
     inkscape:groupmode="layer"
     id="layer1"
     transform="translate(0,-280.06666)">
    <path
       style="fill:#191919;fill-opacity:1;stroke:none;stroke-width:0.26458335px;stroke-linecap:butt;stroke-linejoin:miter;stroke-opacity:1"
       d="m 2.8210492,294.02622 c -0.48132,0.76986 -0.10072,1.04314 0.34067,1.48731 1.96203,1.97441 6.73434,1.65521 9.1066798,0.90568 1.61837,-0.51132 1.8531,-0.7104 1.66179,-1.52886 -0.1437,-0.61473 -0.2214,-0.94185 -0.44868,-1.39591 1.47538,-2.02941 3.77408,-5.49634 2.64226,-8.97373 -1.11132,-3.41442 -4.15396,-4.6842 -8.5582798,-4.42039 -2.02093,0.12105 -3.55922,0.59057 -4.68627,2.75859 -0.46421,0.89297 -0.6185,1.2962 -0.53178,2.52594 -1.17669,0.44073 -1.95080997,1.56182 -1.82797997,2.84168 0.16553,1.72495 0.32333,2.59832 2.39298997,4.28745 0.12367,0.50393 0.15703,1.11489 -0.0917,1.51224 z"
       id="path826"
       inkscape:connector-curvature="0"
       sodipodi:nodetypes="cssscssscscsc" />
    <path
       style="fill:#ed1c24;fill-opacity:1;stroke:none;stroke-width:0.26458335px;stroke-linecap:butt;stroke-linejoin:miter;stroke-opacity:1"
       d="m 3.7932092,288.50903 c -0.40287,-0.55544 -0.91909,-1.13047 -1.08017,-1.92768 -0.48086,0.56619 -1.2213,1.38147 -0.66473,2.60902 0.47323,1.0437 1.21712,1.81549 2.26005,2.64227 0.57449,0.45542 1.51532,1.06679 0.74782,1.99416 -0.2562,0.30957 -0.37253,0.57111 -0.49854,0.88075 2.5825,1.17069 5.6934298,1.19252 7.8935498,-0.0332 -0.12399,-0.61229 -0.56075,-0.91504 -1.19649,-0.96385 2.00677,-1.60213 3.0734,-4.04713 3.48979,-6.86324 0.40067,-2.70985 -1.08511,-4.91174 -5.0851198,-5.20144 -1.52027,-0.1101 -3.29909,-0.20358 -4.65304,0.78105 -0.93775,0.68195 -1.23786,1.69077 -1.29621,3.27375 -0.0303,0.82179 -0.052,1.95225 0.0831,2.80844 z"
       id="path828"
       inkscape:connector-curvature="0"
       sodipodi:nodetypes="ccssscccssssc" />
    <path
       style="fill:#cc161d;fill-opacity:1;stroke:none;stroke-width:0.26458335px;stroke-linecap:butt;stroke-linejoin:miter;stroke-opacity:1"
       d="m 2.6490692,287.43699 c -0.27423,1.11352 1.98566,2.74864 3.2197,3.76023 0.76746,0.62912 1.681,1.16255 0.70504,2.16213 -0.80509,0.82459 -0.45805,1.30892 0.30552,1.33958 0.96052,0.0386 2.07358,0.10363 2.74966,-0.37602 0.26347,-0.18692 -0.32111,-0.65562 -0.96355,-1.05757 2.0102598,-1.33049 3.3346598,-3.1345 3.2901998,-6.7214 -0.0272,-2.1886 -1.08301,-4.29789 -4.5122698,-4.37127 2.52928,-0.61437 5.9575798,0.068 6.6743998,2.91418 0.68027,2.70101 -1.5302,8.11394 -3.59572,8.39001 -0.3081,0.98491 0.6917,0.81678 1.24557,0.98706 -1.04301,0.45697 -2.3659498,0.72936 -3.7837198,0.70504 -1.0204,-0.0175 -2.03846,-0.0952 -2.93768,-0.63454 0.55857,-0.60653 0.93481,-1.57897 0.32902,-2.32664 -0.84707,-1.04545 -2.6243,-1.86386 -3.03169,-3.64272 -0.1658,-0.72395 0.10628,-0.88192 0.30552,-1.12807 z"
       id="path830"
       inkscape:connector-curvature="0"
       sodipodi:nodetypes="csssscscsccscssc" />
    <path
       inkscape:connector-curvature="0"
       id="path853"
       style="font-style:normal;font-weight:normal;font-size:medium;line-height:1.25;font-family:sans-serif;letter-spacing:0px;word-spacing:0px;fill:#ffffff;fill-opacity:1;stroke:#191919;stroke-width:1.85208333;stroke-miterlimit:4;stroke-dasharray:none;stroke-opacity:1;paint-order:stroke fill markers"
       d="m 10.961819,288.11899 q 0,0.62352 -0.144056,1.08923 -0.140055,0.46187 -0.464182,0.76978 -0.308122,0.29251 -0.720282,0.42723 -0.412163,0.1347 -0.960378,0.1347 -0.56022,0 -0.9763831,-0.1424 -0.416164,-0.14241 -0.700274,-0.41953 -0.324128,-0.3156 -0.468185,-0.76207 -0.140054,-0.44648 -0.140054,-1.09694 v -3.42935 h 0.79231 v 3.46784 q 0,0.46571 0.06403,0.73514 0.06803,0.26941 0.224088,0.4888 0.17607,0.25018 0.476188,0.3772 0.3041191,0.12701 0.7282861,0.12701 0.428168,0 0.728284,-0.12317 0.300118,-0.12701 0.480189,-0.38104 0.156061,-0.21939 0.220087,-0.50035 0.06803,-0.28481 0.06803,-0.70435 v -3.48708 h 0.79231 z" />
  </g>
</svg>
